<?xml version="1.0" standalone="no"?>
<!DOCTYPE svg PUBLIC "-//W3C//DTD SVG 20010904//EN"
 "http://www.w3.org/TR/2001/REC-SVG-20010904/DTD/svg10.dtd">
<svg version="1.0" xmlns="http://www.w3.org/2000/svg"
 width="79.000000pt" height="59.000000pt" viewBox="0 0 79.000000 59.000000"
 preserveAspectRatio="xMidYMid meet">

<g transform="translate(0.000000,59.000000) scale(0.100000,-0.100000)"
fill="#000000" stroke="none">
<path d="M63 560 c-17 -10 -37 -28 -42 -39 -15 -28 -15 -422 1 -455 26 -59 37
-61 353 -64 319 -3 352 1 389 51 20 27 21 41 21 237 0 196 -1 210 -21 237 -38
52 -46 53 -369 53 -280 0 -302 -1 -332 -20z m407 -60 c11 -11 20 -23 20 -27 0
-5 32 -8 71 -9 80 -1 113 -18 141 -75 25 -48 24 -179 -1 -236 -26 -55 -58 -74
-136 -81 -90 -7 -95 -1 -95 110 0 78 -2 89 -16 84 -9 -3 -26 -6 -39 -6 -23 0
-24 -3 -27 -87 l-3 -88 -47 -3 c-42 -3 -48 -1 -48 17 0 19 -1 19 -24 -4 -28
-27 -70 -38 -141 -33 l-50 3 0 190 0 190 82 0 c72 0 84 -3 107 -24 l26 -24 0
61 0 62 80 0 c67 0 83 -3 100 -20z"/>
<path d="M390 390 c0 -27 5 -50 10 -50 6 0 10 23 10 50 0 28 -4 50 -10 50 -5
0 -10 -22 -10 -50z"/>
<path d="M570 265 c0 -68 3 -85 15 -85 22 0 35 33 35 92 0 53 -12 78 -37 78
-10 0 -13 -22 -13 -85z"/>
<path d="M160 256 c0 -88 8 -107 34 -81 32 33 32 147 0 159 -31 12 -34 5 -34
-78z"/>
</g>
</svg>
